<?xml version="1.0" standalone="no"?>
<!DOCTYPE svg PUBLIC "-//W3C//DTD SVG 20010904//EN"
 "http://www.w3.org/TR/2001/REC-SVG-20010904/DTD/svg10.dtd">
<svg version="1.0" xmlns="http://www.w3.org/2000/svg"
 width="3207.000000pt" height="999.000000pt" viewBox="0 0 3207.000000 999.000000"
 preserveAspectRatio="xMidYMid meet">

<g transform="translate(0.000000,999.000000) scale(0.100000,-0.100000)"
fill="#000000" stroke="none">
<path d="M27225 9449 c-1052 -97 -1986 -521 -2740 -1243 l-110 -105 75 30
c195 78 449 138 702 165 186 20 688 14 918 -10 489 -52 886 -138 1345 -291
317 -105 505 -183 830 -344 278 -138 451 -236 688 -388 81 -53 149 -94 152
-92 7 7 36 260 31 272 -4 11 -10 -27 -7 -45 0 -5 -4 -8 -10 -8 -5 0 -7 -6 -3
-12 5 -10 3 -10 -7 0 -8 7 -14 18 -14 24 0 6 -6 13 -14 16 -8 3 -11 0 -7 -7 5
-7 1 -9 -8 -5 -9 3 -16 13 -16 21 0 10 -6 13 -17 9 -10 -4 -14 -4 -11 0 4 3
-5 16 -20 28 -45 36 -146 101 -154 98 -5 -1 -8 2 -8 7 0 5 -10 11 -23 15 -12
3 -40 21 -61 41 -21 19 -44 35 -52 35 -7 0 -17 6 -21 13 -4 7 -25 21 -47 32
-21 11 -43 27 -49 36 -7 12 -20 15 -41 12 -23 -3 -27 -1 -16 6 12 8 9 12 -13
20 -16 6 -31 11 -35 11 -16 0 -102 46 -102 55 0 10 -46 35 -65 35 -6 0 -26 11
-45 25 -18 13 -37 22 -41 19 -5 -3 -6 3 -2 12 5 12 3 15 -6 9 -7 -4 -23 -2
-34 3 -12 6 -38 15 -57 20 -19 5 -34 14 -33 20 1 5 -4 13 -12 16 -8 3 -15 0
-15 -7 0 -7 -7 -4 -15 7 -16 21 -101 65 -127 66 -9 0 -23 8 -30 18 -7 10 -24
22 -38 25 -31 8 -83 55 -75 68 4 5 -1 9 -10 9 -8 0 -24 6 -35 13 -16 9 -22 9
-28 0 -5 -8 -13 -9 -22 -3 -11 7 -11 10 -2 10 10 0 10 3 0 14 -7 8 -16 12 -20
9 -5 -2 -8 1 -8 6 0 6 -9 11 -20 11 -11 0 -29 9 -40 20 -24 24 -30 25 -30 5 0
-8 7 -15 15 -15 8 0 15 -5 15 -11 0 -6 -7 -8 -16 -5 -9 3 -22 6 -30 6 -9 0
-12 5 -9 10 3 6 -3 10 -15 10 -12 0 -18 5 -15 10 4 6 -5 10 -20 10 -14 0 -28
7 -31 15 -4 8 -11 15 -16 15 -5 0 -21 9 -35 20 -14 11 -36 20 -48 20 -12 0
-25 3 -29 8 -4 4 -11 7 -14 7 -4 1 -17 6 -28 13 -12 6 -25 8 -29 4 -5 -4 -6 0
-3 8 4 11 -3 15 -31 16 -47 1 -91 14 -91 26 0 5 -6 8 -12 7 -34 -4 -48 2 -48
21 0 14 -7 20 -21 20 -11 0 -18 4 -14 9 3 6 -12 8 -35 6 -23 -2 -45 2 -52 9
-20 19 -90 41 -130 41 -28 -1 -34 2 -27 11 8 9 4 11 -12 7 -18 -5 -21 -3 -16
11 4 10 3 15 -3 11 -6 -3 -10 1 -10 9 0 11 -9 16 -28 16 -21 0 -32 7 -40 26
-7 14 -17 22 -22 19 -6 -3 -15 -3 -20 0 -11 7 17 37 49 55 8 4 11 13 7 19 -4
6 -12 8 -18 5 -7 -4 -8 -2 -4 4 4 7 14 12 22 12 18 0 54 36 54 55 0 13 18 20
43 16 4 0 7 4 7 9 0 6 -4 10 -9 10 -6 0 -9 9 -8 20 1 11 8 20 15 20 12 0 12 3
1 17 -10 11 -10 14 -2 9 7 -4 23 0 35 9 l23 17 -25 -6 c-25 -6 -25 -6 -2 5 12
7 22 16 22 21 0 4 8 8 18 8 15 1 15 2 -2 15 -18 14 -19 15 -2 15 13 0 17 5 13
20 -4 14 0 20 12 20 10 0 28 11 41 25 l23 25 -22 0 c-13 0 -19 4 -16 10 4 6
14 8 24 5 9 -3 26 2 37 10 19 14 19 14 -1 15 -18 1 -19 1 -2 11 9 5 23 7 30 3
6 -4 9 -4 5 1 -4 4 0 15 10 24 23 21 22 42 -2 51 -53 18 335 50 611 50 454 0
897 -71 1321 -213 73 -24 132 -42 132 -39 0 20 -84 174 -112 204 -30 34 -45
41 -182 78 -421 114 -782 161 -1210 159 -138 -1 -291 -5 -341 -10z m-288 -235
c-3 -3 -12 -4 -19 -1 -8 3 -5 6 6 6 11 1 17 -2 13 -5z m273 -825 c0 -6 -4 -7
-10 -4 -5 3 -10 11 -10 16 0 6 5 7 10 4 6 -3 10 -11 10 -16z"/>
<path d="M27058 9223 c7 -3 16 -2 19 1 4 3 -2 6 -13 5 -11 0 -14 -3 -6 -6z"/>
<path d="M30504 8338 c14 -29 44 -111 67 -183 l42 -130 86 -90 c497 -520 880
-1221 1040 -1905 19 -80 33 -160 24 -132 -3 6 -11 12 -19 12 -12 0 -13 4 -3
21 6 12 7 25 2 30 -5 5 -9 1 -10 -9 -2 -27 -27 -92 -35 -92 -5 0 -8 -10 -8
-22 0 -18 -2 -20 -10 -8 -5 8 -12 11 -15 8 -4 -4 -3 -12 1 -19 4 -7 9 -27 11
-44 2 -24 1 -27 -8 -12 -17 28 -26 20 -45 -44 -16 -49 -23 -61 -44 -65 -28 -6
-51 -44 -45 -75 2 -10 0 -19 -6 -19 -5 0 -9 -8 -9 -17 -1 -16 -2 -16 -18 2
-19 22 -48 33 -36 14 11 -19 14 -78 3 -84 -5 -4 -9 1 -9 10 0 15 -1 15 -16 0
-9 -9 -16 -27 -16 -41 0 -14 -6 -24 -14 -24 -8 0 -14 -7 -14 -15 0 -8 -4 -15
-10 -15 -5 0 -10 -12 -10 -27 0 -25 0 -26 -17 -7 -10 10 -24 20 -32 22 -7 1
-20 10 -29 18 -8 9 -26 20 -40 25 -13 5 -26 18 -29 29 -3 11 -8 18 -12 16 -3
-2 -12 2 -19 10 -7 8 -9 14 -5 14 4 0 -1 7 -11 15 -12 9 -15 15 -7 15 10 0 11
3 2 13 -6 8 -7 17 -3 21 4 4 3 7 -3 6 -21 -4 -55 13 -55 27 0 15 -37 67 -48
69 -23 3 -41 19 -47 41 -4 18 -11 24 -25 20 -13 -3 -17 -1 -13 9 3 8 0 14 -6
14 -6 0 -11 7 -11 15 0 9 -6 18 -14 21 -8 3 -12 12 -10 19 3 8 0 22 -6 32 -11
17 -11 17 -6 0 4 -12 2 -16 -6 -11 -33 21 -59 50 -69 81 -6 18 -17 33 -25 33
-8 0 -14 4 -14 9 0 6 -12 16 -27 23 -14 7 -31 22 -37 32 -13 22 -46 59 -46 50
0 -3 -7 1 -15 10 -8 8 -15 21 -15 28 0 8 4 7 11 -4 5 -10 15 -18 20 -18 6 0 3
7 -5 16 -11 11 -16 36 -17 82 l-2 67 -8 -80 c-9 -96 -36 -299 -49 -374 l-10
-54 68 -91 c396 -528 703 -1112 851 -1619 83 -285 116 -506 110 -749 -2 -80
-3 -145 -2 -144 1 1 25 55 53 120 137 320 241 679 299 1026 28 166 51 370 51
448 0 34 4 62 10 62 6 0 10 78 10 215 0 118 -4 215 -8 215 -5 0 -12 51 -15
113 -17 312 -96 712 -209 1057 -228 698 -615 1316 -1146 1831 -83 81 -164 156
-181 169 l-31 22 24 -54z"/>
<path d="M27815 8140 c3 -5 8 -10 11 -10 2 0 4 5 4 10 0 6 -5 10 -11 10 -5 0
-7 -4 -4 -10z"/>
<path d="M24388 7903 c7 -3 16 -2 19 1 4 3 -2 6 -13 5 -11 0 -14 -3 -6 -6z"/>
<path d="M24280 7871 c-149 -57 -164 -66 -217 -132 -27 -35 -58 -76 -67 -91
l-18 -27 70 34 c39 19 100 44 135 57 59 20 64 24 57 43 -6 16 -4 22 5 22 8 0
11 -5 8 -10 -3 -6 -1 -7 5 -3 6 4 9 13 5 21 -3 8 0 15 6 15 6 0 11 7 11 16 0
8 -4 12 -10 9 -5 -3 -10 -1 -10 4 0 6 5 11 11 11 5 0 7 6 3 13 -5 7 0 6 11 -3
11 -9 16 -10 11 -2 -5 8 6 18 36 31 65 29 33 24 -52 -8z"/>
<path d="M24298 7753 c7 -3 16 -2 19 1 4 3 -2 6 -13 5 -11 0 -14 -3 -6 -6z"/>
<path d="M29121 7484 c0 -11 3 -14 6 -6 3 7 2 16 -1 19 -3 4 -6 -2 -5 -13z"/>
<path d="M24115 7430 c-13 -5 -14 -9 -5 -9 8 0 24 4 35 9 13 5 14 9 5 9 -8 0
-24 -4 -35 -9z"/>
<path d="M6350 7409 c-281 -30 -529 -95 -755 -199 -570 -262 -1006 -789 -1178
-1425 -14 -49 -28 -106 -31 -125 -72 -381 -71 -700 6 -1074 150 -739 623
-1275 1330 -1510 279 -92 485 -126 823 -133 282 -6 418 6 680 58 250 51 448
108 654 191 180 73 320 149 374 203 34 35 36 91 6 167 -12 29 -29 78 -39 108
-71 215 -142 397 -165 420 -43 43 -97 35 -245 -37 -248 -121 -441 -185 -703
-238 -263 -52 -629 -34 -884 45 -304 94 -565 342 -674 642 -32 86 -69 242 -69
291 l0 27 1460 0 c1222 0 1466 2 1494 14 18 8 43 31 57 52 l24 39 0 310 c0
423 -29 625 -131 933 -183 548 -593 957 -1139 1136 -183 60 -281 79 -515 101
-167 16 -262 17 -380 4z m445 -838 c44 -11 112 -33 151 -49 317 -132 516 -447
527 -833 l2 -94 -999 -3 -998 -2 7 47 c25 177 117 397 225 541 56 76 152 173
220 224 109 82 284 156 420 178 41 6 82 13 90 15 41 10 282 -6 355 -24z"/>
<path d="M13765 7400 c-186 -25 -276 -44 -425 -92 -332 -107 -604 -272 -840
-508 -416 -416 -640 -986 -640 -1625 0 -239 18 -392 75 -630 144 -602 532
-1098 1072 -1369 466 -233 1080 -298 1611 -171 545 132 981 439 1285 905 70
108 165 299 206 415 18 50 36 101 41 115 21 59 60 225 81 345 19 110 22 168
23 385 1 267 -5 332 -49 535 -170 780 -693 1369 -1425 1603 -314 101 -693 135
-1015 92z m548 -824 c185 -46 305 -113 437 -245 213 -213 325 -492 366 -911
17 -183 17 -318 -1 -490 -17 -165 -26 -218 -59 -342 -77 -294 -221 -520 -423
-664 -184 -133 -444 -192 -700 -160 -229 28 -394 102 -543 243 -198 187 -319
451 -376 823 -24 155 -24 537 -1 694 32 206 74 349 151 511 138 288 353 470
631 534 125 29 122 28 295 26 105 -1 177 -8 223 -19z"/>
<path d="M23995 7395 c-38 -14 -109 -43 -157 -66 l-86 -42 -55 -96 c-30 -53
-54 -97 -52 -99 1 -1 36 15 76 37 77 41 256 114 309 126 16 4 32 10 35 15 6
10 -15 8 -32 -3 -14 -9 -33 -1 -33 13 0 5 6 7 13 5 7 -3 17 9 25 27 7 18 21
50 32 71 22 44 20 44 -75 12z"/>
<path d="M10950 7404 c-629 -39 -1065 -219 -1348 -557 -171 -202 -259 -405
-302 -693 -35 -235 -40 -424 -40 -1704 0 -1340 -1 -1314 45 -1384 9 -14 38
-35 63 -48 47 -23 51 -23 432 -23 292 0 394 3 422 13 46 16 94 70 107 119 6
24 11 554 14 1388 5 1471 3 1427 62 1614 53 168 198 313 386 386 159 63 400
86 649 64 80 -7 183 -13 229 -14 79 0 85 1 103 26 20 26 48 126 68 239 5 30
23 120 40 200 43 209 40 262 -21 299 -34 21 -119 41 -254 61 -77 11 -543 21
-655 14z"/>
<path d="M17077 7350 l-489 -5 -24 -28 c-32 -38 -31 -76 7 -184 136 -385 327
-751 631 -1207 125 -188 355 -501 477 -651 40 -49 75 -94 77 -99 2 -6 -74 -90
-169 -186 -449 -454 -804 -979 -1066 -1573 -140 -318 -149 -372 -71 -412 24
-13 91 -15 419 -15 436 0 474 4 525 55 20 20 80 128 159 286 184 372 355 650
572 934 103 134 240 292 268 309 16 10 31 -2 109 -84 289 -306 570 -754 783
-1251 36 -85 78 -167 93 -182 60 -64 43 -62 542 -65 494 -4 550 1 592 45 37
39 29 89 -37 243 -265 615 -710 1285 -1221 1835 -68 73 -124 136 -124 140 0 4
40 50 89 103 250 272 510 600 689 869 217 326 375 631 478 921 42 115 42 135
5 173 l-29 29 -407 0 c-445 0 -431 2 -492 -62 -17 -18 -74 -109 -126 -203
-216 -389 -403 -682 -591 -925 -136 -177 -206 -251 -229 -248 -41 6 -265 326
-437 623 -91 157 -243 458 -328 647 -24 52 -56 108 -71 122 -52 50 -77 51
-604 46z"/>
<path d="M215 7338 c-66 -37 -60 -105 30 -333 195 -497 528 -1048 989 -1637
80 -103 146 -192 146 -198 0 -6 -67 -77 -148 -158 -481 -479 -896 -1113 -1156
-1764 -55 -139 -60 -192 -20 -229 l26 -24 396 -3 c263 -2 414 1 449 8 89 19
110 45 233 294 213 433 409 746 659 1056 127 157 194 230 212 230 30 0 215
-211 358 -409 203 -279 419 -669 539 -971 39 -99 84 -164 128 -186 36 -18 69
-19 493 -22 485 -3 540 1 585 43 50 47 29 124 -120 434 -281 583 -713 1207
-1151 1662 -57 58 -103 113 -103 120 0 8 43 61 96 119 541 595 938 1197 1137
1725 60 159 63 191 21 230 l-27 25 -404 0 c-449 0 -447 0 -501 -66 -15 -18
-67 -106 -116 -194 -78 -144 -155 -275 -256 -440 -172 -279 -527 -750 -565
-750 -8 0 -48 46 -90 101 -226 300 -476 733 -645 1113 -68 155 -85 181 -138
213 l-37 23 -500 0 c-353 -1 -506 -4 -520 -12z"/>
<path d="M23794 6906 c-100 -36 -285 -130 -309 -156 -17 -18 -77 -161 -71
-167 2 -3 23 8 46 22 64 40 236 123 296 142 29 9 51 20 48 25 -3 4 1 5 9 3 7
-3 24 -1 38 5 l24 10 -24 -3 c-14 -1 -26 4 -29 12 -3 9 0 12 9 9 10 -4 14 4
15 30 0 21 8 40 18 47 12 10 14 15 5 20 -8 5 -2 12 17 21 58 25 -4 12 -92 -20z"/>
<path d="M24070 6515 c-151 -18 -259 -42 -393 -86 -138 -45 -305 -129 -357
-179 -34 -32 -39 -47 -73 -185 -180 -737 -179 -1439 3 -2165 259 -1034 883
-1943 1764 -2569 87 -62 137 -91 156 -91 15 0 67 7 116 15 488 85 1109 564
1745 1345 329 404 695 962 984 1500 143 266 415 834 404 844 -2 2 -69 50 -149
108 -1071 773 -2193 1271 -3218 1428 -314 48 -747 64 -982 35z"/>
<path d="M30692 6280 c0 -14 2 -19 5 -12 2 6 2 18 0 25 -3 6 -5 1 -5 -13z"/>
<path d="M31600 5734 c0 -8 5 -12 10 -9 6 4 8 11 5 16 -9 14 -15 11 -15 -7z"/>
<path d="M31575 5670 c-3 -5 -1 -10 4 -10 6 0 11 5 11 10 0 6 -2 10 -4 10 -3
0 -8 -4 -11 -10z"/>
<path d="M29906 3473 c-41 -88 -206 -389 -289 -528 -102 -170 -233 -369 -350
-530 -597 -823 -1356 -1460 -2047 -1717 -114 -42 -350 -108 -389 -108 -53 0
-7 -12 112 -30 149 -22 330 -40 410 -40 31 0 57 -4 57 -10 0 -6 67 -10 180
-10 99 0 180 4 180 8 0 5 53 12 118 16 250 14 532 60 807 131 729 189 1387
549 1938 1061 l87 80 6 75 c28 339 -214 884 -641 1446 -121 159 -149 193 -156
193 -3 0 -13 -17 -23 -37z"/>
<path d="M25803 1179 c-85 -40 -240 -93 -305 -105 -21 -3 -38 -9 -38 -13 0 -3
26 -21 58 -38 l59 -32 74 20 c80 23 332 119 326 125 -2 2 -17 0 -33 -6 -23 -8
-37 -6 -65 8 -21 10 -33 24 -31 31 3 9 0 11 -9 7 -16 -9 10 13 38 31 31 20 11
13 -74 -28z"/>
<path d="M25995 1150 c-3 -6 1 -7 9 -4 18 7 21 14 7 14 -6 0 -13 -4 -16 -10z"/>
<path d="M26215 1011 c-22 -11 -37 -20 -34 -20 10 -1 79 29 79 34 0 7 0 7 -45
-14z"/>
<path d="M26127 978 c-15 -5 -24 -14 -21 -20 4 -7 2 -8 -4 -4 -7 4 -53 -6
-104 -23 -51 -16 -110 -32 -130 -36 -21 -4 -38 -11 -38 -15 0 -4 30 -19 68
-34 66 -26 68 -26 127 -11 119 31 362 115 264 92 -18 -5 -31 -2 -39 8 -7 8
-18 15 -25 15 -7 0 -24 9 -38 20 -14 11 -27 20 -29 19 -1 0 -15 -5 -31 -11z"/>
<path d="M26363 956 c-18 -6 -35 -15 -39 -19 -9 -9 50 9 73 22 23 13 7 12 -34
-3z"/>
<path d="M26520 796 c-36 -13 -109 -34 -162 -46 -54 -13 -98 -27 -98 -31 0 -3
39 -17 86 -29 l86 -24 142 33 c77 18 148 38 156 43 12 7 11 8 -5 3 -52 -17
-105 -17 -129 -1 -14 9 -32 16 -40 16 -7 0 -17 7 -20 16 -3 8 -2 12 4 9 6 -3
10 -2 10 2 0 5 12 14 28 20 50 20 8 12 -58 -11z"/>
</g>
</svg>
